<svg width="386" height="205" viewBox="0 0 386 205" fill="none" xmlns="http://www.w3.org/2000/svg">
<path d="M61.1094 76.9707C59.7422 76.9707 58.375 77.752 57.0078 79.3145C55.6406 80.7793 54.127 82.6348 52.4668 84.8809C50.9043 87.127 49.1465 89.6172 47.1934 92.3516C45.2402 94.9883 42.9941 97.4297 40.4551 99.6758C38.0137 101.922 35.2305 103.826 32.1055 105.389C28.9805 106.854 25.416 107.586 21.4121 107.586C19.5566 107.586 17.4082 107.488 14.9668 107.293C12.623 107.195 10.377 106.854 8.22852 106.268C6.17773 105.584 4.41992 104.559 2.95508 103.191C1.58789 101.727 0.904297 99.7246 0.904297 97.1855C0.904297 93.7676 1.92969 90.6914 3.98047 87.957C6.12891 85.125 8.86328 82.5859 12.1836 80.3398C15.6016 78.0938 19.3613 76.1406 23.4629 74.4805C27.6621 72.8203 31.8125 71.4043 35.9141 70.2324C40.0156 69.0605 43.873 68.1328 47.4863 67.4492C51.0996 66.668 54.0293 66.082 56.2754 65.6914L84.8398 20.1348C86.1094 18.084 87.8184 15.9355 89.9668 13.6895C92.1152 11.4434 94.459 9.39258 96.998 7.53711C99.5371 5.58398 102.174 3.97266 104.908 2.70312C107.74 1.43359 110.426 0.798828 112.965 0.798828C113.453 0.798828 114.332 0.896484 115.602 1.0918C116.969 1.28711 118.287 1.9707 119.557 3.14258C120.924 4.31445 122.096 6.21875 123.072 8.85547C124.146 11.4922 124.684 15.252 124.684 20.1348C124 20.3301 123.365 20.6719 122.779 21.1602C122.193 21.5508 121.51 21.9902 120.729 22.4785C120.045 22.8691 119.215 23.2598 118.238 23.6504C117.359 23.9434 116.334 24.0898 115.162 24.0898C116.725 20.8672 117.262 18.3281 116.773 16.4727C116.383 14.5195 115.406 13.2012 113.844 12.5176C112.281 11.834 110.328 11.6875 107.984 12.0781C105.641 12.4688 103.297 13.2988 100.953 14.5684C98.6094 15.7402 96.4609 17.3027 94.5078 19.2559C92.6523 21.209 91.334 23.4062 90.5527 25.8477L65.7969 67.7422V69.6465C69.8008 72.4785 72.8281 75.5547 74.8789 78.875C77.0273 82.1953 78.6387 85.5645 79.7129 88.9824C80.8848 92.3027 81.7637 95.5742 82.3496 98.7969C82.9355 102.02 83.668 104.9 84.5469 107.439C85.5234 110.076 86.8418 112.225 88.502 113.885C90.2598 115.643 92.8477 116.717 96.2656 117.107C96.2656 117.205 96.2656 117.352 96.2656 117.547C96.3633 117.742 96.4121 117.889 96.4121 117.986C96.4121 119.158 95.9238 120.037 94.9473 120.623C94.0684 121.307 92.9941 121.795 91.7246 122.088C90.4551 122.479 89.1367 122.723 87.7695 122.82C86.5 122.918 85.4746 122.967 84.6934 122.967C82.6426 121.209 80.9336 118.865 79.5664 115.936C78.2969 113.006 77.1738 109.881 76.1973 106.561C75.2207 103.143 74.293 99.7246 73.4141 96.3066C72.6328 92.791 71.7051 89.666 70.6309 86.9316C69.5566 84.0996 68.2871 81.7559 66.8223 79.9004C65.3574 78.0449 63.4531 77.0684 61.1094 76.9707ZM8.81445 95.1348C8.81445 96.3066 9.20508 97.2344 9.98633 97.918C10.8652 98.6016 11.8906 99.0898 13.0625 99.3828C14.2344 99.6758 15.4062 99.8711 16.5781 99.9688C17.8477 100.066 18.8242 100.115 19.5078 100.115C22.1445 100.115 25.0742 99.4316 28.2969 98.0645C31.5195 96.5996 34.498 94.7441 37.2324 92.498C40.0645 90.252 42.4082 87.7617 44.2637 85.0273C46.2168 82.1953 47.1934 79.3633 47.1934 76.5312C39.5762 76.5312 32.4473 77.8984 25.8066 80.6328C19.2637 83.2695 13.6484 87.8105 8.96094 94.2559C8.96094 94.3535 8.91211 94.5 8.81445 94.6953C8.81445 94.8906 8.81445 95.0371 8.81445 95.1348ZM102.564 97.4785C103.443 91.9121 105.104 86.7852 107.545 82.0977C109.986 77.4102 112.77 73.3574 115.895 69.9395C119.117 66.4238 122.584 63.543 126.295 61.2969C130.006 59.0508 133.619 57.6348 137.135 57.0488C140.65 56.3652 143.873 56.5117 146.803 57.4883C149.83 58.4648 152.271 60.418 154.127 63.3477C154.127 65.5938 153.59 67.7422 152.516 69.793C151.539 71.8438 150.416 73.8945 149.146 75.9453C147.975 77.9961 146.852 80.0957 145.777 82.2441C144.801 84.3926 144.312 86.6875 144.312 89.1289C144.312 91.668 144.85 93.7188 145.924 95.2812C147.096 96.7461 149.098 97.4785 151.93 97.4785C154.273 97.4785 156.52 97.1367 158.668 96.4531C160.914 95.7695 163.16 95.4277 165.406 95.4277C165.797 95.4277 166.432 95.4766 167.311 95.5742C168.287 95.5742 168.922 95.5742 169.215 95.5742C168.043 97.2344 166.529 98.6504 164.674 99.8223C162.818 100.994 160.865 102.02 158.814 102.898C156.764 103.68 154.615 104.266 152.369 104.656C150.221 105.047 148.219 105.242 146.363 105.242C144.605 105.242 143.043 104.852 141.676 104.07C140.309 103.289 139.137 102.264 138.16 100.994C137.184 99.7246 136.402 98.3086 135.816 96.7461C135.328 95.0859 135.084 93.4746 135.084 91.9121C133.619 93.5723 132.008 95.3301 130.25 97.1855C128.59 98.9434 126.783 100.555 124.83 102.02C122.975 103.484 120.924 104.705 118.678 105.682C116.529 106.658 114.283 107.146 111.939 107.146C109.4 107.146 107.203 106.219 105.348 104.363C103.492 102.41 102.564 100.115 102.564 97.4785ZM112.232 92.9375C112.232 93.7188 112.232 94.5977 112.232 95.5742C112.33 96.5508 112.965 97.1855 114.137 97.4785C116.578 96.8926 119.361 95.623 122.486 93.6699C125.611 91.6191 128.541 89.2754 131.275 86.6387C134.01 83.9043 136.305 81.0234 138.16 77.9961C140.016 74.8711 140.943 71.8926 140.943 69.0605C140.943 68.8652 140.895 68.5723 140.797 68.1816C140.797 67.6934 140.797 67.3516 140.797 67.1562C137.477 67.1562 134.107 67.8398 130.689 69.207C127.271 70.5742 124.195 72.4785 121.461 74.9199C118.727 77.2637 116.48 79.998 114.723 83.123C113.062 86.248 112.232 89.5195 112.232 92.9375ZM137.428 184.783C137.428 179.217 138.404 174.236 140.357 169.842C142.213 165.447 144.703 161.346 147.828 157.537C150.953 153.826 154.518 150.359 158.521 147.137C162.525 144.012 166.627 140.936 170.826 137.908C175.025 134.979 179.127 132 183.131 128.973C187.135 125.945 190.699 122.723 193.824 119.305C196.949 115.887 199.439 112.176 201.295 108.172C203.248 104.168 204.225 99.7246 204.225 94.8418C204.225 94.6465 204.225 94.207 204.225 93.5234C204.225 92.7422 204.176 92.2539 204.078 92.0586C203.395 92.6445 202.076 93.5234 200.123 94.6953C198.17 95.7695 196.07 96.9414 193.824 98.2109C191.676 99.3828 189.576 100.457 187.525 101.434C185.475 102.41 184.01 103.045 183.131 103.338C183.033 103.338 182.643 103.387 181.959 103.484C181.373 103.582 180.641 103.68 179.762 103.777C178.98 103.875 178.199 103.973 177.418 104.07C176.637 104.07 176.002 104.07 175.514 104.07C171.119 103.289 168.189 101.775 166.725 99.5293C165.26 97.1855 164.869 94.4512 165.553 91.3262C166.236 88.2012 167.75 84.8809 170.094 81.3652C172.535 77.752 175.416 74.334 178.736 71.1113C182.154 67.791 185.816 64.8613 189.723 62.3223C193.727 59.6855 197.584 57.8301 201.295 56.7559C205.104 55.584 208.57 55.3398 211.695 56.0234C214.918 56.6094 217.408 58.5137 219.166 61.7363C219.752 65.8379 219.752 69.6953 219.166 73.3086C218.58 76.8242 217.799 80.291 216.822 83.709C215.846 87.127 214.869 90.5938 213.893 94.1094C212.916 97.5273 212.33 101.287 212.135 105.389H213.453C214.039 104.803 215.016 103.777 216.383 102.312C217.848 100.848 219.361 99.334 220.924 97.7715C222.584 96.1113 224.146 94.5977 225.611 93.2305C227.076 91.7656 228.102 90.7402 228.688 90.1543C228.98 89.8613 229.566 89.4707 230.445 88.9824C231.422 88.4941 232.105 88.25 232.496 88.25V88.6895V88.9824C232.496 89.0801 232.545 89.1289 232.643 89.1289C232.643 92.6445 231.617 95.8672 229.566 98.7969C227.613 101.727 225.221 104.461 222.389 107C219.557 109.539 216.627 111.883 213.6 114.031C210.572 116.277 208.033 118.426 205.982 120.477C204.322 123.895 202.516 128.143 200.562 133.221C198.609 138.396 196.461 143.865 194.117 149.627C191.773 155.486 189.137 161.395 186.207 167.352C183.375 173.406 180.152 178.973 176.539 184.051C173.023 189.129 169.117 193.475 164.82 197.088C160.523 200.799 155.738 203.191 150.465 204.266C147.926 204.266 145.826 203.631 144.166 202.361C142.408 201.092 141.041 199.48 140.064 197.527C139.088 195.672 138.404 193.572 138.014 191.229C137.623 188.982 137.428 186.834 137.428 184.783ZM145.191 192.693C145.973 194.549 146.9 195.672 147.975 196.062C149.049 196.453 150.27 196.648 151.637 196.648C154.176 196.648 156.959 195.33 159.986 192.693C163.014 190.057 166.041 186.639 169.068 182.439C172.193 178.338 175.172 173.748 178.004 168.67C180.836 163.592 183.326 158.66 185.475 153.875C187.721 149.09 189.479 144.695 190.748 140.691C192.115 136.785 192.799 133.855 192.799 131.902C192.799 131.707 192.75 131.365 192.652 130.877C192.652 130.486 192.652 130.193 192.652 129.998C192.359 130.193 191.676 130.486 190.602 130.877C189.625 131.365 189.039 131.707 188.844 131.902C184.742 134.93 180.104 138.25 174.928 141.863C169.85 145.574 165.113 149.627 160.719 154.021C156.227 158.416 152.467 163.152 149.439 168.23C146.412 173.406 144.898 178.973 144.898 184.93C144.898 185.223 144.898 185.76 144.898 186.541C144.898 187.322 144.947 188.104 145.045 188.885C145.045 189.666 145.094 190.398 145.191 191.082C145.191 191.863 145.191 192.4 145.191 192.693ZM209.791 63.4941C208.229 63.4941 206.178 64.0312 203.639 65.1055C201.1 66.082 198.365 67.4492 195.436 69.207C192.604 70.9648 189.723 72.9668 186.793 75.2129C183.863 77.459 181.178 79.8027 178.736 82.2441C176.393 84.6855 174.488 87.127 173.023 89.5684C171.559 92.0098 170.826 94.2559 170.826 96.3066C172.877 96.3066 175.367 95.916 178.297 95.1348C181.227 94.2559 184.254 93.1328 187.379 91.7656C190.602 90.3008 193.775 88.6406 196.9 86.7852C200.025 84.832 202.809 82.7812 205.25 80.6328C207.789 78.4844 209.84 76.2871 211.402 74.041C212.965 71.7949 213.746 69.5977 213.746 67.4492C213.746 64.8125 212.428 63.4941 209.791 63.4941ZM231.91 94.6953C231.91 94.3047 231.91 93.5234 231.91 92.3516C232.008 91.082 232.057 90.252 232.057 89.8613C235.182 82.7324 239.186 76.1406 244.068 70.0859C248.951 64.0312 254.469 58.6602 260.621 53.9727C260.816 53.9727 261.109 53.9238 261.5 53.8262C261.988 53.6309 262.33 53.5332 262.525 53.5332C265.162 53.5332 267.311 54.1191 268.971 55.291C270.729 56.3652 272.096 57.8301 273.072 59.6855C274.146 61.4434 274.879 63.4453 275.27 65.6914C275.66 67.8398 275.855 69.9395 275.855 71.9902C275.855 75.7988 274.977 79.8027 273.219 84.002C271.461 88.1035 269.068 91.9121 266.041 95.4277C263.111 98.8457 259.742 101.678 255.934 103.924C252.125 106.072 248.17 107.146 244.068 107.146C239.967 107.146 236.891 106.072 234.84 103.924C232.887 101.678 231.91 98.6016 231.91 94.6953ZM243.336 92.9375C243.336 94.0117 243.775 94.7441 244.654 95.1348C245.533 95.5254 246.412 95.7207 247.291 95.7207C249.732 95.7207 252.076 95.0859 254.322 93.8164C256.666 92.4492 258.717 90.7891 260.475 88.8359C262.33 86.7852 263.795 84.5391 264.869 82.0977C265.943 79.6562 266.48 77.3125 266.48 75.0664C266.48 73.9922 266.383 72.8203 266.188 71.5508C266.09 70.1836 265.797 69.0117 265.309 68.0352C264.82 66.9609 264.039 66.1309 262.965 65.5449C261.988 64.959 260.572 64.8613 258.717 65.252C257.35 65.5449 255.787 66.8145 254.029 69.0605C252.271 71.3066 250.562 73.9434 248.902 76.9707C247.34 79.9004 246.021 82.8789 244.947 85.9062C243.873 88.8359 243.336 91.1797 243.336 92.9375ZM351.734 107.146C349.879 107.146 348.17 106.805 346.607 106.121C345.143 105.438 343.922 104.461 342.945 103.191C341.969 101.922 341.285 100.506 340.895 98.9434C340.504 97.2832 340.553 95.5254 341.041 93.6699C341.041 90.5449 341.578 87.6641 342.652 85.0273C343.824 82.293 345.094 79.7051 346.461 77.2637C347.926 74.7246 349.195 72.2344 350.27 69.793C351.441 67.2539 352.027 64.5684 352.027 61.7363C349.879 61.7363 347.584 62.4199 345.143 63.7871C342.701 65.1543 340.211 66.9609 337.672 69.207C335.23 71.4531 332.789 73.9922 330.348 76.8242C328.004 79.5586 325.758 82.3418 323.609 85.1738C321.559 87.9082 319.752 90.5449 318.189 93.084C316.725 95.623 315.602 97.7227 314.82 99.3828C314.625 99.4805 314.137 99.5781 313.355 99.6758C312.574 99.6758 312.086 99.6758 311.891 99.6758C310.328 100.457 309.352 100.457 308.961 99.6758C308.668 98.7969 308.668 97.4785 308.961 95.7207C309.352 93.9629 309.938 92.0098 310.719 89.8613C311.5 87.6152 312.232 85.5156 312.916 83.5625C313.697 81.5117 314.283 79.8516 314.674 78.582C315.064 77.2148 315.113 76.5312 314.82 76.5312C315.113 76.1406 315.455 75.5059 315.846 74.627C316.236 73.748 316.627 72.8203 317.018 71.8438C317.408 70.8672 317.75 69.9883 318.043 69.207C318.336 68.3281 318.482 67.6445 318.482 67.1562C318.482 66.2773 318.141 65.7402 317.457 65.5449C316.871 65.252 316.285 65.1055 315.699 65.1055C313.941 64.1289 312.037 64.7148 309.986 66.8633C308.033 68.9141 305.885 71.8926 303.541 75.7988C301.295 79.6074 298.805 84.002 296.07 88.9824C293.434 93.8652 290.504 98.6016 287.281 103.191C285.035 103.191 283.326 102.898 282.154 102.312C280.982 101.727 280.396 100.262 280.396 97.918C281.178 96.8438 282.35 94.8418 283.912 91.9121C285.475 88.8848 287.232 85.5645 289.186 81.9512C291.139 78.3379 293.189 74.6758 295.338 70.9648C297.584 67.2539 299.684 64.1289 301.637 61.5898C303.688 58.9531 305.494 57.1953 307.057 56.3164C308.717 55.3398 310.035 55.7793 311.012 57.6348C312.672 56.5605 314.479 55.6328 316.432 54.8516C318.482 54.0703 320.533 53.6797 322.584 53.6797C323.951 53.6797 325.074 54.1191 325.953 54.998C326.93 55.7793 327.662 56.8047 328.15 58.0742C328.736 59.2461 329.176 60.5156 329.469 61.8828C329.762 63.1523 329.908 64.2754 329.908 65.252C330.982 64.5684 332.74 63.3965 335.182 61.7363C337.721 59.9785 340.406 58.2207 343.238 56.4629C346.168 54.7051 349 53.1914 351.734 51.9219C354.566 50.5547 356.861 49.8711 358.619 49.8711C360.182 49.8711 361.5 50.457 362.574 51.6289C363.746 52.7031 364.332 54.0703 364.332 55.7305C360.816 64.3242 358.033 71.209 355.982 76.3848C354.029 81.5605 352.711 85.6133 352.027 88.543C351.441 91.375 351.441 93.4258 352.027 94.6953C352.711 95.8672 353.883 96.7949 355.543 97.4785C358.18 97.4785 360.719 97.0391 363.16 96.1602C365.602 95.2812 367.994 94.3047 370.338 93.2305C372.779 92.1562 375.221 91.1797 377.662 90.3008C380.104 89.4219 382.691 88.9824 385.426 88.9824C385.426 90.0566 385.133 91.082 384.547 92.0586C384.059 92.9375 383.277 93.6211 382.203 94.1094C381.422 94.5977 380.006 95.3789 377.955 96.4531C376.002 97.4297 373.854 98.5039 371.51 99.6758C369.166 100.75 366.92 101.824 364.771 102.898C362.721 103.973 361.256 104.705 360.377 105.096C358.424 105.975 356.91 106.561 355.836 106.854C354.859 107.049 353.492 107.146 351.734 107.146Z" fill="black"/>
</svg>
