<svg width="354" height="161" viewBox="0 0 354 161" fill="none" xmlns="http://www.w3.org/2000/svg">
<path d="M43.294 129.176V116.471H55.9999V129.176H43.294ZM53.8823 129.176V116.471H66.5882V129.176H53.8823ZM75.0588 129.176V116.471H87.7646V129.176H75.0588ZM32.7058 118.588V105.882H45.4117V118.588H32.7058ZM64.4705 118.588V105.882H77.1764V118.588H64.4705ZM75.0588 118.588V105.882H87.7646V118.588H75.0588ZM32.7058 108V95.2941H45.4117V108H32.7058ZM75.0588 108V95.2941H87.7646V108H75.0588ZM43.294 97.4117V84.7058H55.9999V97.4117H43.294ZM53.8823 97.4117V84.7058H66.5882V97.4117H53.8823ZM64.4705 97.4117V84.7058H77.1764V97.4117H64.4705ZM75.0588 97.4117V84.7058H87.7646V97.4117H75.0588ZM75.0588 86.8235V74.1176H87.7646V86.8235H75.0588ZM75.0588 76.2352V63.5294H87.7646V76.2352H75.0588ZM32.7058 65.647V52.9411H45.4117V65.647H32.7058ZM75.0588 65.647V52.9411H87.7646V65.647H75.0588ZM43.294 55.0588V42.3529H55.9999V55.0588H43.294ZM53.8823 55.0588V42.3529H66.5882V55.0588H53.8823ZM64.4705 55.0588V42.3529H77.1764V55.0588H64.4705Z" fill="white"/>
<path d="M106.906 160.941V148.235H119.612V160.941H106.906ZM117.494 160.941V148.235H130.2V160.941H117.494ZM128.083 160.941V148.235H140.789V160.941H128.083ZM138.671 160.941V148.235H151.377V160.941H138.671ZM149.259 150.353V137.647H161.965V150.353H149.259ZM149.259 139.765V127.059H161.965V139.765H149.259ZM117.494 129.176V116.471H130.2V129.176H117.494ZM128.083 129.176V116.471H140.789V129.176H128.083ZM138.671 129.176V116.471H151.377V129.176H138.671ZM117.494 118.588V105.882H130.2V118.588H117.494ZM117.494 108V95.2941H130.2V108H117.494ZM128.083 108V95.2941H140.789V108H128.083ZM138.671 108V95.2941H151.377V108H138.671ZM106.906 97.4117V84.7058H119.612V97.4117H106.906ZM149.259 97.4117V84.7058H161.965V97.4117H149.259ZM106.906 86.8235V74.1176H119.612V86.8235H106.906ZM149.259 86.8235V74.1176H161.965V86.8235H149.259ZM106.906 76.2352V63.5294H119.612V76.2352H106.906ZM149.259 76.2352V63.5294H161.965V76.2352H149.259ZM106.906 65.647V52.9411H119.612V65.647H106.906ZM149.259 65.647V52.9411H161.965V65.647H149.259ZM117.494 55.0588V42.3529H130.2V55.0588H117.494ZM128.083 55.0588V42.3529H140.789V55.0588H128.083ZM138.671 55.0588V42.3529H151.377V55.0588H138.671ZM149.259 44.4705V31.7646H161.965V44.4705H149.259Z" fill="white"/>
<path d="M192.866 129.177V116.471H205.571V129.177H192.866ZM203.454 129.177V116.471H216.16V129.177H203.454ZM214.042 129.177V116.471H226.748V129.177H214.042ZM182.277 118.588V105.882H194.983V118.588H182.277ZM224.63 118.588V105.882H237.336V118.588H224.63ZM182.277 108V95.2942H194.983V108H182.277ZM224.63 108V95.2942H237.336V108H224.63ZM182.277 97.4119V84.706H194.983V97.4119H182.277ZM224.63 97.4119V84.706H237.336V97.4119H224.63ZM182.277 86.8236V74.1177H194.983V86.8236H182.277ZM224.63 86.8236V74.1177H237.336V86.8236H224.63ZM182.277 76.2354V63.5295H194.983V76.2354H182.277ZM224.63 76.2354V63.5295H237.336V76.2354H224.63ZM182.277 65.6471V52.9413H194.983V65.6471H182.277ZM224.63 65.6471V52.9413H237.336V65.6471H224.63ZM192.866 55.0589V42.353H205.571V55.0589H192.866ZM203.454 55.0589V42.353H216.16V55.0589H203.454ZM214.042 55.0589V42.353H226.748V55.0589H214.042Z" fill="white"/>
<path d="M256.457 129.177V116.471H269.163V129.177H256.457ZM298.81 129.177V116.471H311.516V129.177H298.81ZM341.163 129.177V116.471H353.869V129.177H341.163ZM256.457 118.588V105.882H269.163V118.588H256.457ZM298.81 118.588V105.882H311.516V118.588H298.81ZM341.163 118.588V105.882H353.869V118.588H341.163ZM256.457 108V95.2942H269.163V108H256.457ZM298.81 108V95.2942H311.516V108H298.81ZM341.163 108V95.2942H353.869V108H341.163ZM256.457 97.4119V84.706H269.163V97.4119H256.457ZM298.81 97.4119V84.706H311.516V97.4119H298.81ZM341.163 97.4119V84.706H353.869V97.4119H341.163ZM256.457 86.8236V74.1177H269.163V86.8236H256.457ZM298.81 86.8236V74.1177H311.516V86.8236H298.81ZM341.163 86.8236V74.1177H353.869V86.8236H341.163ZM256.457 76.2354V63.5295H269.163V76.2354H256.457ZM298.81 76.2354V63.5295H311.516V76.2354H298.81ZM341.163 76.2354V63.5295H353.869V76.2354H341.163ZM256.457 65.6471V52.9413H269.163V65.6471H256.457ZM267.045 65.6471V52.9413H279.751V65.6471H267.045ZM298.81 65.6471V52.9413H311.516V65.6471H298.81ZM309.398 65.6471V52.9413H322.104V65.6471H309.398ZM341.163 65.6471V52.9413H353.869V65.6471H341.163ZM256.457 55.0589V42.353H269.163V55.0589H256.457ZM277.633 55.0589V42.353H290.339V55.0589H277.633ZM288.222 55.0589V42.353H300.928V55.0589H288.222ZM319.986 55.0589V42.353H332.692V55.0589H319.986ZM330.575 55.0589V42.353H343.281V55.0589H330.575Z" fill="white"/>
<path d="M0 129.176V116.471H12.7059V129.176H0ZM0 118.588V105.882H12.7059V118.588H0ZM0 108V95.2941H12.7059V108H0ZM0 97.4118V84.7059H12.7059V97.4118H0ZM0 86.8235V74.1177H12.7059V86.8235H0ZM0 76.2353V63.5294H12.7059V76.2353H0ZM0 65.6471V52.9412H12.7059V65.6471H0ZM0 55.0588V42.3529H12.7059V55.0588H0ZM0 44.4706V31.7647H12.7059V44.4706H0ZM0 33.8824V21.1765H12.7059V33.8824H0ZM0 23.2941V10.5882H12.7059V23.2941H0ZM0 12.7059V0H12.7059V12.7059H0Z" fill="white"/>
</svg>
